<svg id="logosandtypes_com" data-name="logosandtypes com" xmlns="http://www.w3.org/2000/svg" viewBox="0 0 150 150"><defs><style>.cls-1{fill:none;}</style></defs><path class="cls-1" d="M0,0H150V150H0Z" transform="translate(0 0)"/><g id="Monogram"><path id="Rectangle-path" d="M16.41,16.77H134.55V134.91H16.41Zm28.2,39.51V91.36a4.06,4.06,0,0,1-1.08,3.48L35.19,105v1.33H58.83V105L50.5,94.84a4.16,4.16,0,0,1-1.15-3.48V61L70.1,106.28h2.41L90.33,61V97.1c0,1,0,1.15-.63,1.78l-6.41,6.22v1.33h31.12V105.1L108.22,99a1.86,1.86,0,0,1-.7-1.77V52.61a1.87,1.87,0,0,1,.7-1.78l6.34-6.07V43.43H92.62L77,82.43l-17.79-39h-23v1.33l7.41,8.93A3.08,3.08,0,0,1,44.61,56.28Z" transform="translate(0 0)"/></g></svg>